# xmcd
#
# Track frame offsets:
#	150
#	21323
#	37545
#	54409
#	67980
#	85795
#	99431
#	113349
#	134306
#	147190
#	163924
#	181288
#
# Disc length: 2780 seconds
# Revision: 0
# Processed by: cddbd v1.5.2PL0 Copyright (c) Steve Scherf et al.
# Submitted via: dBpowerAMP V12.0
#
DISCID=8f0ada0c
DTITLE=Leaf Rapids - Lucky Stars
DYEAR=2015
DGENRE=Folk
TTITLE0=Virtual Machine
TTITLE1=April
TTITLE2=Everything In Between
TTITLE3=Don't Be Scared
TTITLE4=Lucky Stars
TTITLE5=Healing Feeling
TTITLE6=Welcome Stranger
TTITLE7=Vulture Lullaby
TTITLE8=Gravity and a Ladder Of Gold
TTITLE9=Galaxie 500
TTITLE10=Agent of the Night
TTITLE11=The Man Who Sold the World
EXTD=
EXTT0=
EXTT1=
EXTT2=
EXTT3=
EXTT4=
EXTT5=
EXTT6=
EXTT7=
EXTT8=
EXTT9=
EXTT10=
EXTT11=
PLAYORDER=
